<?xml version="1.0" encoding="UTF-8"?>
<svg xmlns="http://www.w3.org/2000/svg" version="1.2" baseProfile="tiny-ps" viewBox="0 0 1000 1000">
  <title>Luxsome Packaging</title>
  <rect width="1000" height="1000" fill="#000000"/>
  <path d="M 489.03 92.99 L 487.03 94.99 L 447.13 96.98 L 405.23 104.96 L 371.31 114.94 L 331.41 130.90 L 289.51 152.85 L 253.60 176.79 L 231.65 194.74 L 191.75 234.65 L 153.84 286.52 L 125.91 340.39 L 113.94 370.32 L 99.98 416.20 L 93.99 446.13 L 92.00 486.03 L 90.00 488.03 L 90.00 517.96 L 92.00 519.95 L 93.99 557.86 L 101.97 595.77 L 113.94 633.67 L 135.89 683.55 L 173.80 743.41 L 191.75 765.35 L 237.64 811.24 L 271.56 837.18 L 307.47 859.12 L 341.39 875.09 L 391.27 893.04 L 449.12 905.01 L 532.92 907.01 L 534.91 905.01 L 562.85 903.02 L 614.72 891.05 L 684.55 863.11 L 716.47 845.16 L 748.39 823.21 L 774.33 801.27 L 806.25 769.34 L 830.19 739.42 L 854.14 703.50 L 864.11 681.56 L 868.10 677.57 L 868.10 673.58 L 872.09 669.59 L 886.06 635.67 L 906.01 563.84 L 908.00 529.93 L 910.00 527.93 L 910.00 474.06 L 908.00 472.07 L 906.01 440.15 L 896.03 396.25 L 872.09 332.41 L 854.14 298.49 L 832.19 264.57 L 810.24 236.64 L 780.32 204.72 L 752.38 180.78 L 708.49 150.85 L 662.60 126.91 L 632.68 114.94 L 590.78 102.97 L 558.86 98.98 L 556.86 96.98 L 518.95 94.99 L 516.96 92.99 Z M 479.05 124.91 L 520.95 124.91 L 522.94 126.91 L 562.85 128.91 L 624.70 144.87 L 658.61 158.83 L 692.53 176.79 L 728.44 200.73 L 750.39 218.69 L 796.28 266.57 L 818.22 296.50 L 838.18 330.41 L 854.14 364.33 L 864.11 392.26 L 874.09 430.17 L 878.08 466.08 L 880.07 468.08 L 878.08 551.87 L 868.10 597.76 L 856.13 633.67 L 822.21 699.51 L 782.31 751.39 L 756.37 777.32 L 710.49 813.24 L 650.63 845.16 L 592.77 865.11 L 552.87 873.09 L 512.97 875.09 L 510.97 877.08 L 465.09 875.09 L 463.09 873.09 L 425.18 869.10 L 369.32 853.14 L 309.46 825.21 L 281.53 807.25 L 253.60 785.30 L 213.70 745.40 L 189.76 715.47 L 169.81 683.55 L 147.86 639.66 L 127.91 575.82 L 123.92 541.90 L 121.92 539.90 L 121.92 517.96 L 119.93 515.96 L 123.92 450.12 L 131.90 414.21 L 145.86 370.32 L 155.84 346.37 L 181.78 298.49 L 219.68 248.61 L 243.63 224.67 L 275.55 198.73 L 339.39 160.83 L 397.25 138.88 L 421.19 134.89 L 431.17 130.90 L 477.06 126.91 Z M 762.36 378.30 L 518.95 513.97 L 518.95 781.31 L 526.93 779.32 L 560.85 759.37 L 562.85 753.38 L 562.85 719.46 L 560.85 717.47 L 560.85 707.49 L 562.85 705.50 L 560.85 703.50 L 564.84 697.52 L 762.36 585.79 Z M 718.47 452.12 L 720.46 454.11 L 720.46 557.86 L 714.48 563.84 L 700.51 569.83 L 686.55 579.81 L 564.84 647.64 L 562.85 645.64 L 562.85 539.90 Z M 241.63 376.30 L 241.63 645.64 L 291.51 675.57 L 317.45 687.54 L 353.36 709.49 L 375.30 719.46 L 429.17 751.39 L 487.03 781.31 L 489.03 779.32 L 489.03 733.43 L 285.52 619.71 L 285.52 398.25 L 251.61 378.30 Z M 255.60 346.37 L 255.60 348.37 L 373.31 412.21 L 502.99 488.03 L 580.80 446.13 L 584.79 442.14 L 582.80 434.16 L 562.85 414.21 L 550.88 412.21 L 502.99 438.15 L 345.38 346.37 L 403.24 312.46 L 451.12 338.39 L 459.10 336.40 L 477.06 324.43 L 479.05 320.44 L 441.14 298.49 L 439.15 294.50 L 493.02 262.58 L 504.99 258.59 L 662.60 348.37 L 660.61 352.36 L 612.73 378.30 L 600.75 374.31 L 554.87 346.37 L 550.88 346.37 L 536.91 354.36 L 528.93 362.34 L 534.91 370.32 L 574.82 392.26 L 616.72 424.18 L 636.67 416.20 L 750.39 352.36 L 748.39 346.37 L 504.99 208.71 L 501.00 208.71 L 463.09 228.66 L 413.21 258.59 L 387.27 270.56 L 351.36 292.51 L 287.52 326.42 Z" fill="#FFFFFF" fill-rule="evenodd"/>
</svg>
